<svg width="17" height="18" viewBox="0 0 17 18" fill="none" xmlns="http://www.w3.org/2000/svg">
<path d="M1.61104 11.7071L2.22024 11.5674L1.61104 11.7071ZM1.61104 6.79436L2.22024 6.93399L1.61104 6.79436ZM15.2223 6.79436L14.6131 6.93399L15.2223 6.79436ZM15.2223 11.7071L14.6131 11.5674L15.2223 11.7071ZM10.8168 16.2158L10.9627 16.8235L10.8168 16.2158ZM6.01653 16.2158L6.16242 15.608L6.01653 16.2158ZM6.01652 2.28566L6.16242 2.89339L6.01652 2.28566ZM10.8168 2.28566L10.9627 1.67793L10.8168 2.28566ZM5.76671 1.5C5.76671 1.15482 5.48689 0.875 5.14171 0.875C4.79653 0.875 4.51671 1.15482 4.51671 1.5H5.76671ZM4.51671 3.59479C4.51671 3.93997 4.79653 4.21979 5.14171 4.21979C5.48689 4.21979 5.76671 3.93997 5.76671 3.59479H4.51671ZM12.3166 1.5C12.3166 1.15482 12.0368 0.875 11.6916 0.875C11.3464 0.875 11.0666 1.15482 11.0666 1.5H12.3166ZM11.0666 3.59479C11.0666 3.93997 11.3464 4.21979 11.6916 4.21979C12.0368 4.21979 12.3166 3.93997 12.3166 3.59479H11.0666ZM5.96045 11.1395C5.61527 11.1395 5.33545 11.4193 5.33545 11.7645C5.33545 12.1096 5.61527 12.3895 5.96045 12.3895V11.1395ZM8.41665 12.3895C8.76182 12.3895 9.04165 12.1096 9.04165 11.7645C9.04165 11.4193 8.76182 11.1395 8.41665 11.1395V12.3895ZM5.96045 8.62571C5.61527 8.62571 5.33545 8.90554 5.33545 9.25071C5.33545 9.59589 5.61527 9.87571 5.96045 9.87571V8.62571ZM10.8728 9.87571C11.218 9.87571 11.4978 9.59589 11.4978 9.25071C11.4978 8.90554 11.218 8.62571 10.8728 8.62571V9.87571ZM2.22024 11.5674C1.871 10.0437 1.871 8.45774 2.22024 6.93399L1.00184 6.65473C0.610472 8.36227 0.610472 10.1392 1.00184 11.8467L2.22024 11.5674ZM14.6131 6.93399C14.9623 8.45774 14.9623 10.0437 14.6131 11.5674L15.8315 11.8467C16.2228 10.1392 16.2228 8.36227 15.8315 6.65473L14.6131 6.93399ZM10.6709 15.608C9.18812 15.964 7.64518 15.964 6.16242 15.608L5.87063 16.8235C7.54519 17.2255 9.28811 17.2255 10.9627 16.8235L10.6709 15.608ZM6.16242 2.89339C7.64518 2.53744 9.18812 2.53744 10.6709 2.89339L10.9627 1.67793C9.28811 1.27593 7.54519 1.27593 5.87063 1.67793L6.16242 2.89339ZM6.16242 15.608C4.21337 15.1401 2.68139 13.5794 2.22024 11.5674L1.00184 11.8467C1.5662 14.309 3.44781 16.2419 5.87063 16.8235L6.16242 15.608ZM10.9627 16.8235C13.3855 16.2419 15.2671 14.309 15.8315 11.8467L14.6131 11.5674C14.1519 13.5794 12.6199 15.1401 10.6709 15.608L10.9627 16.8235ZM10.6709 2.89339C12.6199 3.36129 14.1519 4.92201 14.6131 6.93399L15.8315 6.65473C15.2671 4.19241 13.3855 2.25956 10.9627 1.67793L10.6709 2.89339ZM5.87063 1.67793C3.44781 2.25956 1.5662 4.19241 1.00184 6.65473L2.22024 6.93399C2.68139 4.92201 4.21337 3.36129 6.16242 2.89339L5.87063 1.67793ZM4.51671 1.5V3.59479H5.76671V1.5H4.51671ZM11.0666 1.5V3.59479H12.3166V1.5H11.0666ZM5.96045 12.3895H8.41665V11.1395H5.96045V12.3895ZM5.96045 9.87571H10.8728V8.62571H5.96045V9.87571Z" fill="#363853"/>
</svg>
