<svg width="22" height="20" viewBox="0 0 22 20" fill="none" xmlns="http://www.w3.org/2000/svg">
<path d="M1.88539 13.1513L2.61329 12.9705L1.88539 13.1513ZM1.88539 6.84875L2.61329 7.02949L1.88539 6.84875ZM20.1146 6.84875L20.8425 6.66801L20.1146 6.84875ZM20.1146 13.1512L19.3867 12.9705L20.1146 13.1512ZM14.1156 18.659L13.9533 17.9267H13.9533L14.1156 18.659ZM7.88443 18.659L8.04668 17.9267L7.88443 18.659ZM7.88443 1.34105L8.04668 2.07329L7.88443 1.34105ZM14.1156 1.34105L14.2778 0.60881V0.60881L14.1156 1.34105ZM7.43056 18.5584L7.2683 19.2906L7.43056 18.5584ZM14.5694 18.5584L14.7317 19.2906H14.7317L14.5694 18.5584ZM14.5694 1.44162L14.4072 2.17386V2.17386L14.5694 1.44162ZM7.43056 1.44162L7.2683 0.70938V0.70938L7.43056 1.44162ZM7.58712 7.73987C7.25008 7.49907 6.78166 7.57709 6.54087 7.91413C6.30008 8.25116 6.3781 8.71958 6.71513 8.96038L7.58712 7.73987ZM9.72165 10.1866L10.1576 9.57636L9.72165 10.1866ZM12.2783 10.1866L12.7143 10.7969H12.7143L12.2783 10.1866ZM15.2849 8.96038C15.6219 8.71958 15.6999 8.25116 15.4591 7.91413C15.2183 7.57709 14.7499 7.49907 14.4129 7.73987L15.2849 8.96038ZM7.59281 2.17386L8.04668 2.07329L7.72218 0.608809L7.2683 0.70938L7.59281 2.17386ZM13.9533 2.07329L14.4072 2.17386L14.7317 0.709379L14.2778 0.60881L13.9533 2.07329ZM14.4072 17.8261L13.9533 17.9267L14.2778 19.3912L14.7317 19.2906L14.4072 17.8261ZM8.04668 17.9267L7.59281 17.8261L7.2683 19.2906L7.72218 19.3912L8.04668 17.9267ZM2.61329 12.9705C2.1289 11.0198 2.1289 8.9802 2.61329 7.02949L1.1575 6.668C0.614168 8.8561 0.614167 11.1439 1.1575 13.332L2.61329 12.9705ZM19.3867 7.0295C19.8711 8.9802 19.8711 11.0198 19.3867 12.9705L20.8425 13.332C21.3858 11.1439 21.3858 8.8561 20.8425 6.66801L19.3867 7.0295ZM13.9533 17.9267C12.008 18.3578 9.99198 18.3578 8.04668 17.9267L7.72218 19.3912C9.88122 19.8696 12.1188 19.8696 14.2778 19.3912L13.9533 17.9267ZM8.04668 2.07329C9.99198 1.64224 12.008 1.64224 13.9533 2.07329L14.2778 0.60881C12.1188 0.130397 9.88122 0.130397 7.72218 0.608809L8.04668 2.07329ZM7.59281 17.8261C5.14627 17.284 3.21736 15.4032 2.61329 12.9705L1.1575 13.332C1.89874 16.3171 4.26576 18.6253 7.2683 19.2906L7.59281 17.8261ZM14.7317 19.2906C17.7342 18.6253 20.1013 16.3171 20.8425 13.332L19.3867 12.9705C18.7826 15.4032 16.8537 17.284 14.4072 17.8261L14.7317 19.2906ZM14.4072 2.17386C16.8537 2.71598 18.7826 4.5968 19.3867 7.0295L20.8425 6.66801C20.1013 3.68288 17.7342 1.3747 14.7317 0.709379L14.4072 2.17386ZM7.2683 0.70938C4.26576 1.3747 1.89874 3.68288 1.1575 6.668L2.61329 7.02949C3.21736 4.59679 5.14627 2.71598 7.59281 2.17386L7.2683 0.70938ZM6.71513 8.96038L9.28566 10.7969L10.1576 9.57636L7.58712 7.73987L6.71513 8.96038ZM12.7143 10.7969L15.2849 8.96038L14.4129 7.73987L11.8424 9.57636L12.7143 10.7969ZM9.28566 10.7969C10.3112 11.5295 11.6888 11.5295 12.7143 10.7969L11.8424 9.57636C11.3384 9.93637 10.6616 9.93637 10.1576 9.57636L9.28566 10.7969Z" fill="#363853"/>
</svg>
