<svg width="13" height="14" viewBox="0 0 13 14" fill="none" xmlns="http://www.w3.org/2000/svg">
<path d="M4.08319 1.24686L4.34818 0.750685V0.750685L4.08319 1.24686ZM11.0761 4.98147L10.8111 5.47764L11.0761 4.98147ZM11.0732 9.03626L11.3374 9.53285L11.0732 9.03626ZM4.084 12.7547L3.8198 12.2581L4.084 12.7547ZM1.1099 10.0345L0.571235 9.87251L1.1099 10.0345ZM1.10549 3.96312L0.566649 4.12456L1.10549 3.96312ZM4.24715 7.57445C4.55781 7.57445 4.80965 7.32261 4.80965 7.01195C4.80965 6.70129 4.55781 6.44945 4.24715 6.44945V7.57445ZM3.81821 1.74303L10.8111 5.47764L11.3411 4.48529L4.34818 0.750685L3.81821 1.74303ZM10.809 8.53966L3.8198 12.2581L4.3482 13.2513L11.3374 9.53285L10.809 8.53966ZM1.64857 10.1965L2.55757 7.17395L1.48023 6.84996L0.571235 9.87251L1.64857 10.1965ZM2.55774 6.85052L1.64432 3.80169L0.566649 4.12456L1.48006 7.17339L2.55774 6.85052ZM2.0189 7.57445H4.24715V6.44945H2.0189V7.57445ZM3.8198 12.2581C3.2129 12.581 2.58051 12.4441 2.12977 12.0318C1.67533 11.6161 1.427 10.9332 1.64857 10.1965L0.571235 9.87251C0.218314 11.046 0.615191 12.1711 1.3705 12.8619C2.12951 13.5561 3.27141 13.8242 4.3482 13.2513L3.8198 12.2581ZM10.8111 5.47764C11.9807 6.10226 11.9792 7.91708 10.809 8.53966L11.3374 9.53285C13.3026 8.48732 13.3045 5.53388 11.3411 4.48529L10.8111 5.47764ZM4.34818 0.750685C3.27203 0.175959 2.12952 0.442329 1.36947 1.13564C0.613138 1.82557 0.214872 2.95038 0.566649 4.12456L1.64432 3.80169C1.42346 3.06449 1.67266 2.38182 2.12764 1.96679C2.57892 1.55514 3.21158 1.41906 3.81821 1.74303L4.34818 0.750685Z" fill="#363853"/>
</svg>
