<svg width="16" height="16" viewBox="0 0 16 16" fill="none" xmlns="http://www.w3.org/2000/svg">
<path d="M12.86 12.9026H14.75M2.51 8L1.25 8.03303M2.51 8C2.51 8.99411 3.31589 9.8 4.31 9.8C5.30411 9.8 6.11 8.99411 6.11 8C6.11 7.00589 5.30411 6.2 4.31 6.2C3.31589 6.2 2.51 7.00589 2.51 8ZM6.62673 8.03308H14.75M8.60072 3.16343L1.25 3.16343M14.75 3.16343H12.86M1.25 12.9026H8.60072M12.41 12.95C12.41 13.9441 11.6041 14.75 10.61 14.75C9.61589 14.75 8.81 13.9441 8.81 12.95C8.81 11.9559 9.61589 11.15 10.61 11.15C11.6041 11.15 12.41 11.9559 12.41 12.95ZM12.41 3.05C12.41 4.04411 11.6041 4.85 10.61 4.85C9.61589 4.85 8.81 4.04411 8.81 3.05C8.81 2.05589 9.61589 1.25 10.61 1.25C11.6041 1.25 12.41 2.05589 12.41 3.05Z" stroke="#363853" stroke-width="1.125" stroke-linecap="round"/>
</svg>
