<svg version="1" xmlns="http://www.w3.org/2000/svg" width="189.333" height="189.333" viewBox="0 0 142.000000 142.000000"><path d="M37.9 37c-1.3 3.7-2.6 3.8-3.9.5-.9-2.5-1.3-2.6-7.2-2.3-5.4.3-6.4.6-7.3 2.5C19 39 18 40 17.3 40c-.7 0-2.2.9-3.3 2-1.9 1.9-2 3.3-2 32.9 0 17.7.4 32.1 1 33.5l1 2.6h57.3c43.2 0 57.6-.3 58.5-1.2.9-.9 1.2-10.6 1.2-37.5V36l-2.6-1c-2.7-1.1-60.3-1.4-64-.4-1.2.3-2.7 1.7-3.3 3-1.4 3.3-3.4 3-4.8-.6-1.1-3-1.1-3-9.3-3h-8.1l-1 3zM126 48.5V58h-23.1l1.2 2.2c1.8 3.4 3.9 11.9 3.9 16 0 6.1-3.7 14.3-9.2 20.3l-5 5.5H126v5l-54.2-.2-54.3-.3-.3-2.3-.3-2.2h42.3l-4.8-5.2c-9.1-10.1-11.2-19.5-7.2-31.6l2.4-7.2H17V45h47.2l1.1-3 1.1-3H126v9.5z"/><path d="M108 48.5V54h15V43h-15v5.5zM66.5 50.5c-2.2.8-5.9 1.5-8.2 1.5-4.9 0-5.5.7-6.4 8-.4 3-1.2 7.5-1.9 10-4.6 17.9 13.2 35 32.4 31 14-2.9 23.8-17.5 20.6-30.8-.6-2.6-1.3-7.4-1.5-10.6-.4-6.7-1.2-7.6-7.1-7.6-2.3 0-5.8-.7-7.7-1.5-4.5-1.9-14.9-1.9-20.2 0zm-4.6 3.6c1.7.6 3.1 1.5 3.1 2 0 1.1-1.4 1.2-2.4.1-.4-.4-2.2-1.2-3.9-1.9-4.1-1.5-1.1-1.7 3.2-.2zm31.6.9c-4.7 2.2-5.9 2.4-5 .9.9-1.4 4.4-2.8 7-2.8 1.3 0 .6.7-2 1.9zm6.5 4.5c0 2.4-.3 4.6-.7 4.8-.5.3-.8-1.9-.8-4.8s.3-5.1.8-4.8c.4.2.7 2.4.7 4.8zm-24 3c0 4.8 1.5 7.8 2.3 4.9.3-1.1.8-4 1.2-6.6.4-3.5 1-4.6 2.1-4.1.9.3 1.4 1.9 1.4 4.3 0 5.3 1.8 6 2.6 1 .4-2.2 1.1-4 1.7-4 1.6 0 7.3 4.1 8.6 6.2 1 1.6.8 2-1.4 2.8-3.5 1.3-3.1 2 .5 1 2.3-.7 3-.5 3 .6 0 .8-.8 1.4-1.7 1.4-1 0-2.5.5-3.3 1.1-1.1.8-.6.9 2.3.7 4.4-.5 5 1.3 1 2.9-2.8 1.1-2.8 1.1.5.6 2.9-.5 3.2-.3 3.2 2.1 0 5.5-5 12.5-11.2 15.7-4.3 2.2-7.4 2.4-8.1.6-.3-.7-.6-.5-.6.5-.1 2.5-2.2 2.2-2.8-.3-.6-2.1-.6-2.1-1.9.2-1.1 2.2-1.3 2.2-2 .6-.5-1.4-.9-1.5-1.5-.6-1.4 2.4-8.5-.7-13.9-6.2-3-3-4.2-4.8-3.1-4.4 1.1.3 2.2.2 2.5-.3.3-.6-.2-.9-1.1-.8-1.3.1-1.8-.8-2-3.7-.3-3.4-.1-3.7 2.4-3.8l2.8-.1-2.7-1c-4.2-1.5-3.3-2.9 1.5-2.3l4.2.5-3.8-1.7c-4.1-2-4-3.6.2-2.8 2.5.5 2.6.5.4-.6C58 66.2 57 65.4 57 65c0-2 10.1-8.5 11.4-7.3.3.4.6 1.8.6 3.2 0 4.8 1.7 5.5 2.3 1 1-7.5 4.6-7.1 4.7.6zm-21.3 1.7c-.3.8-.6.5-.6-.6-.1-1.1.2-1.7.5-1.3.3.3.4 1.2.1 1.9z"/><path d="M65.7 71.2c-.9.5-1.7 1.7-1.7 2.6.1 1.6.1 1.6 1.1-.1 1.3-2.2 3.5-2.2 4.3-.1.4.9.9 1.5 1.1 1.2.8-.8-.5-3.6-1.9-4.1-.7-.3-2-.1-2.9.5zM82.6 72.5c-.8 2.2-.8 2.5.4 2.5.6 0 1-.7 1-1.5 0-2 3.7-1.9 4.3 0 .4 1.1.4 1 .3-.2-.2-2.4-5.1-3-6-.8zM74.7 78.1c-1.7 1-1.7 1.2-.2 2.9.9 1 1.4 2.4 1 2.9-1 1.7-4.3 1.3-5.4-.7-1-1.6-1-1.6-1.1 0 0 2.4 3.5 4.2 5.7 2.9 1.1-.6 2.4-.6 3.5 0 2.3 1.2 5.8-.5 5.8-2.9-.1-1.6-.1-1.6-1.1 0-1.1 2-4.4 2.4-5.4.8-.3-.6.1-1.7 1-2.6 1.2-1.2 1.3-1.9.4-3-1.4-1.7-1.8-1.7-4.2-.3zM90.3 82.5c-.3.9-.3 1.8-.1 2.1.3.3.8-.4 1.1-1.6.6-2.3-.1-2.7-1-.5z"/></svg>